<?xml version="1.0" standalone="no"?>
<!DOCTYPE svg PUBLIC "-//W3C//DTD SVG 20010904//EN"
 "http://www.w3.org/TR/2001/REC-SVG-20010904/DTD/svg10.dtd">
<svg version="1.0" xmlns="http://www.w3.org/2000/svg"
 width="500.000000pt" height="500.000000pt" viewBox="0 0 500.000000 500.000000"
 preserveAspectRatio="xMidYMid meet">
<metadata>
Created by potrace 1.11, written by Peter Selinger 2001-2013
</metadata>
<g transform="translate(0.000000,500.000000) scale(0.100000,-0.100000)"
fill="#000000" stroke="none">
<path d="M2200 4970 c-982 -93 -1780 -507 -2065 -1071 -82 -162 -115 -298
-115 -476 0 -93 26 -353 51 -513 13 -81 62 -230 96 -290 13 -25 38 -83 55
-130 42 -117 107 -243 162 -314 25 -33 46 -65 46 -71 0 -6 7 -88 15 -182 16
-187 37 -268 101 -396 66 -132 145 -238 264 -357 151 -152 379 -333 445 -353
22 -8 75 -53 75 -66 0 -4 13 -7 30 -6 16 1 27 -1 25 -5 -2 -4 7 -13 20 -20 14
-7 25 -17 25 -21 0 -4 19 -16 43 -28 53 -26 127 -52 127 -45 0 3 24 -8 54 -25
29 -17 66 -32 82 -34 16 -2 39 -9 51 -15 12 -7 30 -13 40 -15 10 -2 25 -7 33
-10 50 -18 219 -53 310 -63 30 -3 61 -9 67 -13 7 -3 42 -4 78 -1 36 3 68 4 70
2 2 -3 32 -6 67 -7 35 -2 85 -6 112 -9 28 -4 54 -2 62 4 7 7 15 7 18 2 3 -6
21 -5 43 3 21 7 40 10 43 7 6 -9 23 -8 80 3 25 5 70 10 100 11 30 2 89 10 130
19 41 9 84 17 95 19 11 2 33 8 48 15 16 6 37 11 47 11 10 0 22 5 25 10 3 6 13
10 20 10 8 0 38 11 67 24 29 12 75 29 101 36 27 7 51 19 54 27 3 8 12 12 19 9
8 -3 14 -1 14 4 0 5 10 12 23 16 12 4 32 17 43 30 12 12 25 20 28 17 3 -4 6 1
6 9 0 9 14 21 30 27 17 5 30 14 30 19 0 5 62 47 138 95 183 114 247 162 355
265 180 174 262 300 331 508 45 136 60 244 38 260 -14 10 -13 13 5 23 14 7 25
28 32 61 14 67 14 143 0 135 -14 -9 22 60 70 135 45 69 111 201 140 280 l21
55 -23 -27 c-12 -15 -62 -57 -112 -94 -121 -90 -193 -153 -363 -317 -142 -138
-145 -140 -275 -202 -73 -35 -177 -77 -232 -95 -55 -17 -113 -37 -130 -45 -16
-8 -57 -19 -90 -25 -33 -6 -67 -14 -75 -17 -15 -6 -26 -8 -63 -11 -11 -1 -15
-7 -11 -13 15 -24 -43 6 -103 53 -64 50 -86 76 -35 40 20 -15 30 -17 38 -8 6
6 9 17 6 24 -2 6 2 12 9 12 8 0 7 6 -4 18 -11 12 -13 22 -7 32 6 9 5 17 -3 22
-8 5 -6 8 6 8 18 0 23 15 8 24 -5 4 -11 1 -13 -6 -3 -7 -7 -5 -11 6 -4 9 -3
15 2 12 5 -3 11 3 14 14 3 11 2 18 -2 15 -4 -2 -8 2 -8 10 0 9 5 15 11 14 30
-4 37 1 24 15 -9 10 -17 11 -26 4 -9 -8 -11 -7 -6 5 3 9 21 21 40 27 19 7 32
16 29 21 -4 5 3 9 14 9 14 0 19 5 15 15 -4 8 -1 15 5 15 16 0 13 17 -5 24 -9
3 -12 2 -9 -4 4 -7 -7 -10 -29 -8 -20 1 -35 6 -33 11 1 5 72 32 158 61 207 71
370 137 504 203 505 253 831 620 908 1020 9 51 15 62 28 58 14 -5 15 4 11 67
-18 285 -189 585 -463 813 -356 296 -845 486 -1474 571 -131 18 -701 27 -845
14z m367 -166 c-3 -3 -12 -4 -19 -1 -8 3 -5 6 6 6 11 1 17 -2 13 -5z m428 -34
c13 -6 15 -9 5 -9 -8 0 -22 4 -30 9 -18 12 -2 12 25 0z m-615 -114 c0 -3 -4
-8 -10 -11 -5 -3 -10 -1 -10 4 0 6 5 11 10 11 6 0 10 -2 10 -4z m317 -2 c-3
-3 -12 -4 -19 -1 -8 3 -5 6 6 6 11 1 17 -2 13 -5z m-587 -28 c0 -3 -4 -8 -10
-11 -5 -3 -10 -1 -10 4 0 6 5 11 10 11 6 0 10 -2 10 -4z m657 -68 c-3 -8 -6
-5 -6 6 -1 11 2 17 5 13 3 -3 4 -12 1 -19z m-417 -35 c-11 -17 -11 -17 -6 0 3
10 6 24 7 30 0 9 2 9 5 0 3 -7 0 -20 -6 -30z m995 -12 c0 -22 -3 -34 -7 -28
-5 8 -8 6 -8 -6 0 -10 -4 -16 -10 -12 -5 3 -7 11 -5 18 2 7 6 24 9 40 9 40 21
33 21 -12z m-588 7 c-3 -8 -6 -5 -6 6 -1 11 2 17 5 13 3 -3 4 -12 1 -19z m514
-2 c-14 -17 -71 -38 -71 -27 0 13 43 40 64 40 15 1 16 -2 7 -13z m-541 -37
c-11 -36 -20 -49 -20 -28 0 25 12 59 20 59 5 0 5 -14 0 -31z m-420 -24 c0 -8
-4 -15 -10 -15 -5 0 -7 7 -4 15 4 8 8 15 10 15 2 0 4 -7 4 -15z m807 -9 c-6
-14 50 -36 92 -36 12 0 21 -6 21 -15 0 -18 5 -19 -58 5 -68 26 -85 25 -143 -6
-43 -24 -53 -26 -81 -16 l-33 12 42 -4 c32 -3 40 -1 36 10 -3 10 2 14 18 14
13 0 33 7 43 15 11 8 28 15 38 15 10 0 18 5 18 10 0 6 3 10 6 10 3 0 4 -6 1
-14z m-872 -17 c11 -17 -1 -21 -15 -4 -8 9 -8 15 -2 15 6 0 14 -5 17 -11z
m1070 -21 c-15 -74 -26 -108 -34 -104 -7 5 8 81 24 124 9 25 16 11 10 -20z
m-1493 -20 c-6 -6 -15 -8 -19 -4 -4 4 -1 11 7 16 19 12 27 3 12 -12z m79 -18
c5 0 9 -4 9 -10 0 -14 -13 -12 -36 6 -17 14 -17 15 -1 10 10 -3 23 -6 28 -6z
m89 -9 c0 -7 -51 -31 -67 -31 -15 0 8 26 28 31 35 10 39 10 39 0z m-295 -21
c-3 -5 -10 -10 -16 -10 -5 0 -9 5 -9 10 0 6 7 10 16 10 8 0 12 -4 9 -10z
m2080 -10 c3 -5 1 -10 -4 -10 -6 0 -11 5 -11 10 0 6 2 10 4 10 3 0 8 -4 11
-10z m-529 -26 c31 -15 50 -42 22 -31 -7 2 -30 10 -50 18 -39 13 -50 29 -22
29 9 0 31 -7 50 -16z m579 -13 c3 -5 -21 -19 -52 -31 -73 -27 -109 -34 -116
-23 -3 5 4 10 16 10 12 1 23 7 25 13 2 5 14 10 26 10 12 0 26 4 32 9 8 8 29
15 56 20 4 0 9 -3 13 -8z m-1062 -8 c-7 -2 -19 -2 -25 0 -7 3 -2 5 12 5 14 0
19 -2 13 -5z m74 -9 c-3 -3 -12 -4 -19 -1 -8 3 -5 6 6 6 11 1 17 -2 13 -5z
m-1111 -19 c-11 -8 -27 -15 -35 -15 -13 1 -12 4 3 15 11 8 27 15 35 15 13 -1
12 -4 -3 -15z m1151 9 c-3 -3 -12 -4 -19 -1 -8 3 -5 6 6 6 11 1 17 -2 13 -5z
m138 -34 c55 -17 108 -35 117 -40 10 -6 24 -10 32 -10 7 0 19 -7 26 -15 17
-20 -7 -21 -36 -1 -17 13 -194 75 -249 89 -12 3 -14 5 -5 6 9 0 61 -13 115
-29z m-1865 -5 c-7 -8 -17 -15 -23 -15 -5 0 -2 9 8 20 21 23 35 19 15 -5z
m2525 -11 c14 -9 25 -21 25 -26 0 -6 -12 -3 -26 7 -25 16 -29 16 -91 -10 -35
-15 -67 -25 -70 -21 -8 8 27 35 47 36 8 0 26 7 40 15 33 19 46 18 75 -1z m275
-25 c0 -17 -40 -49 -61 -49 -19 0 -17 3 13 33 32 31 48 37 48 16z m-471 -10
c12 -12 20 -23 17 -26 -5 -5 -66 34 -66 43 0 11 29 2 49 -17z m311 -30 c12 -8
9 -10 -12 -6 -23 3 -33 -3 -63 -41 -19 -25 -35 -49 -35 -54 0 -4 -5 -8 -11 -8
-7 0 -9 9 -6 22 4 12 1 29 -6 37 -10 14 -10 14 5 3 14 -11 20 -8 43 23 28 36
57 44 85 24z m-2303 -55 c-15 -13 -33 -24 -40 -24 -7 0 3 9 21 20 17 11 32 25
32 32 0 6 3 8 8 4 4 -4 -6 -19 -21 -32z m1787 21 c11 -8 18 -17 15 -19 -2 -2
-15 4 -28 15 -27 22 -15 26 13 4z m-1509 -3 c-6 -5 -37 -29 -70 -54 -100 -76
-179 -172 -210 -257 -8 -21 -14 -28 -14 -17 -1 27 60 133 109 188 41 47 167
148 185 148 6 0 6 -3 0 -8z m-546 -52 c46 -15 50 -19 26 -19 -32 -1 -128 39
-140 59 -4 7 7 5 25 -5 18 -9 58 -25 89 -35z m1361 30 c0 -5 -5 -10 -11 -10
-5 0 -7 5 -4 10 3 6 8 10 11 10 2 0 4 -4 4 -10z m-403 -6 c-3 -3 -12 -4 -19
-1 -8 3 -5 6 6 6 11 1 17 -2 13 -5z m41 -35 c-3 -8 -7 -3 -11 10 -4 17 -3 21
5 13 5 -5 8 -16 6 -23z m1418 -6 c-7 -7 -26 7 -26 19 0 6 6 6 15 -2 9 -7 13
-15 11 -17z m-755 -96 c-10 -9 -11 -8 -5 6 3 10 9 15 12 12 3 -3 0 -11 -7 -18z
m-394 -23 c-3 -3 -12 -4 -19 -1 -8 3 -5 6 6 6 11 1 17 -2 13 -5z m773 -14 c8
-5 11 -10 5 -10 -5 0 -17 5 -25 10 -8 5 -10 10 -5 10 6 0 17 -5 25 -10z m-343
-132 c-3 -8 -6 -5 -6 6 -1 11 2 17 5 13 3 -3 4 -12 1 -19z m367 13 c4 -5 -3
-7 -14 -4 -23 6 -26 13 -6 13 8 0 17 -4 20 -9z m306 -6 c0 -8 -2 -15 -4 -15
-2 0 -6 7 -10 15 -3 8 -1 15 4 15 6 0 10 -7 10 -15z m580 -40 c-13 -14 -30
-25 -38 -25 -11 0 -8 7 9 24 33 33 60 34 29 1z m-165 -35 c3 -5 1 -10 -4 -10
-6 0 -11 5 -11 10 0 6 2 10 4 10 3 0 8 -4 11 -10z m-416 -102 c-8 -27 -14 -36
-17 -25 -2 10 1 32 7 49 6 17 12 43 13 57 1 22 2 21 5 -6 2 -17 -1 -51 -8 -75z
m478 56 c-30 -29 -36 -41 -30 -62 4 -17 2 -23 -6 -18 -24 15 -12 63 25 96 48
42 58 29 11 -16z m-654 -31 c-7 -50 -13 -55 -13 -11 0 29 6 48 16 48 1 0 0
-17 -3 -37z m-1036 11 c-3 -3 -12 -4 -19 -1 -8 3 -5 6 6 6 11 1 17 -2 13 -5z
m260 -30 c-3 -3 -12 -4 -19 -1 -8 3 -5 6 6 6 11 1 17 -2 13 -5z m1148 -24 c3
-5 1 -10 -4 -10 -6 0 -11 5 -11 10 0 6 2 10 4 10 3 0 8 -4 11 -10z m1017 -34
c20 -157 -49 -365 -180 -542 -83 -112 -245 -262 -382 -353 -235 -157 -547
-287 -782 -326 -85 -13 -110 -6 -121 35 -4 17 -2 18 15 9 18 -10 20 -9 15 5
-4 9 -3 15 1 14 4 -1 27 9 52 24 25 15 77 38 115 52 39 15 79 30 90 35 11 5
59 26 106 46 199 83 414 211 567 339 214 179 343 371 422 631 23 73 27 77 55
59 14 -9 26 -21 27 -28z m-1252 14 c0 -5 -2 -10 -4 -10 -3 0 -8 5 -11 10 -3 6
-1 10 4 10 6 0 11 -4 11 -10z m-2710 -16 c0 -2 -7 -4 -15 -4 -8 0 -15 4 -15
10 0 5 7 7 15 4 8 -4 15 -8 15 -10z m2700 -14 c0 -12 -28 -20 -46 -13 -12 4
-11 8 8 18 23 12 38 10 38 -5z m100 -4 c0 -3 -4 -8 -10 -11 -5 -3 -10 -1 -10
4 0 6 5 11 10 11 6 0 10 -2 10 -4z m-550 -16 c0 -5 -5 -10 -11 -10 -5 0 -7 5
-4 10 3 6 8 10 11 10 2 0 4 -4 4 -10z m-1937 -7 c-7 -2 -21 -2 -30 0 -10 3 -4
5 12 5 17 0 24 -2 18 -5z m122 -13 c17 -7 15 -9 -10 -8 -16 0 -43 4 -60 8 -29
7 -28 8 10 8 22 0 49 -3 60 -8z m2865 -20 c0 -20 -37 -37 -62 -27 -9 4 -9 6 2
6 9 1 22 10 30 21 18 25 30 26 30 0z m-2619 -7 c13 -15 12 -15 -8 -4 -24 12
-29 21 -14 21 5 0 15 -7 22 -17z m154 -3 c3 -6 -1 -7 -9 -4 -18 7 -21 14 -7
14 6 0 13 -4 16 -10z m165 -37 c-1 -28 -25 -71 -35 -61 -3 3 1 18 10 34 8 16
15 35 15 42 0 6 2 12 5 12 3 0 5 -12 5 -27z m115 17 c8 -13 -5 -13 -25 0 -13
8 -13 10 2 10 9 0 20 -4 23 -10z m-365 -140 c30 -30 44 -46 30 -35 -55 43
-103 92 -132 135 l-29 45 37 -45 c21 -25 63 -70 94 -100z m150 130 c8 -5 11
-10 5 -10 -5 0 -17 5 -25 10 -8 5 -10 10 -5 10 6 0 17 -5 25 -10z m587 4 c-3
-3 -12 -4 -19 -1 -8 3 -5 6 6 6 11 1 17 -2 13 -5z m-237 -13 c0 -5 -9 -7 -20
-4 -11 3 -20 7 -20 9 0 2 9 4 20 4 11 0 20 -4 20 -9z m323 2 c-7 -2 -19 -2
-25 0 -7 3 -2 5 12 5 14 0 19 -2 13 -5z m580 0 c-7 -2 -19 -2 -25 0 -7 3 -2 5
12 5 14 0 19 -2 13 -5z m-783 -13 c13 -9 13 -10 0 -9 -8 0 -24 4 -35 9 l-20 9
20 0 c11 0 27 -4 35 -9z m-500 -27 l35 -13 -37 4 c-21 3 -48 12 -60 21 l-23
17 25 -8 c14 -4 41 -13 60 -21z m615 17 c7 -12 -12 -12 -40 0 -18 8 -17 9 7 9
15 1 30 -3 33 -9z m308 3 c-7 -2 -21 -2 -30 0 -10 3 -4 5 12 5 17 0 24 -2 18
-5z m-208 -13 c3 -5 1 -10 -4 -10 -6 0 -11 5 -11 10 0 6 2 10 4 10 3 0 8 -4
11 -10z m112 -16 c-3 -3 -12 -4 -19 -1 -8 3 -5 6 6 6 11 1 17 -2 13 -5z m184
-31 c13 -15 12 -15 -8 -4 -24 12 -29 21 -14 21 5 0 15 -7 22 -17z m259 2 c-7
-9 -15 -13 -17 -11 -7 7 7 26 19 26 6 0 6 -6 -2 -15z m395 -6 c12 -5 0 -6 -30
-3 -27 2 -53 8 -59 14 -10 10 55 2 89 -11z m-425 -25 c0 -8 -19 -13 -24 -6 -3
5 1 9 9 9 8 0 15 -2 15 -3z m450 -22 c0 -12 -150 -109 -213 -138 -85 -38 -81
-22 5 20 40 19 98 55 128 80 52 42 80 56 80 38z m-1105 -12 c3 -5 1 -10 -4
-10 -6 0 -11 5 -11 10 0 6 2 10 4 10 3 0 8 -4 11 -10z m-515 -105 c30 -16 105
-45 165 -66 61 -21 102 -38 93 -39 -52 -1 -349 130 -381 169 -7 8 6 3 28 -11
22 -14 65 -38 95 -53z m940 49 c0 -2 -8 -1 -17 4 -10 5 -25 7 -33 5 -13 -4
-13 -3 -1 6 14 9 51 -2 51 -15z m351 -21 c13 -16 12 -17 -3 -4 -17 13 -22 21
-14 21 2 0 10 -8 17 -17z m-2694 -23 c-1 -3 4 -12 10 -20 7 -8 28 -33 45 -54
282 -337 670 -560 1189 -685 204 -49 216 -52 389 -75 19 -3 58 -8 85 -12 58
-8 75 -10 134 -12 61 -3 47 -11 -30 -18 -95 -8 -102 -8 -123 1 -14 6 -17 5
-12 -3 9 -15 -18 -16 -46 -1 -15 8 -19 8 -14 0 5 -7 -3 -11 -21 -11 -15 0 -34
-4 -42 -9 -11 -7 -10 -11 5 -20 17 -11 16 -11 -6 -6 -21 5 -22 4 -7 -5 10 -6
23 -10 30 -7 7 2 32 -2 57 -9 25 -7 66 -16 93 -19 83 -12 68 -28 -19 -21 -482
40 -973 202 -1324 435 -75 50 -198 147 -240 190 -17 18 -127 150 -138 167 -47
70 -75 127 -77 156 -2 24 0 26 14 15 12 -9 13 -9 7 1 -4 6 -5 16 -2 20 5 9 46
11 43 2z m1788 -10 c3 -6 -1 -7 -9 -4 -18 7 -21 14 -7 14 6 0 13 -4 16 -10z
m850 0 c3 -6 -1 -7 -9 -4 -18 7 -21 14 -7 14 6 0 13 -4 16 -10z m992 -52 c-3
-8 -6 -5 -6 6 -1 11 2 17 5 13 3 -3 4 -12 1 -19z m-483 -43 c14 -13 26 -29 26
-35 0 -20 -19 -47 -37 -54 -16 -6 -16 -6 0 12 19 20 23 37 7 27 -5 -3 -10 1
-10 10 0 9 5 13 10 10 22 -14 8 15 -16 34 -15 12 -22 21 -17 21 6 0 22 -11 37
-25z m536 21 c0 -2 -7 -7 -16 -10 -8 -3 -12 -2 -9 4 6 10 25 14 25 6z m-596
-27 c36 -28 33 -45 -3 -20 -16 12 -34 21 -40 21 -6 0 -11 5 -11 10 0 16 26 11
54 -11z m556 1 c0 -19 -18 -19 -23 -1 -3 14 -1 18 9 14 8 -3 14 -9 14 -13z
m-3820 -73 c125 -171 265 -304 455 -430 321 -213 733 -360 1225 -438 107 -17
201 -33 209 -35 67 -20 -146 -5 -447 31 -74 9 -136 15 -138 12 -9 -9 13 -47
50 -88 38 -41 56 -89 34 -89 -7 0 4 -13 22 -30 36 -32 22 -41 -20 -14 -14 8
-5 -3 20 -26 l45 -42 -42 4 c-51 4 -58 -13 -15 -37 15 -9 20 -14 10 -11 -28 8
-28 -5 0 -30 l27 -24 -29 10 c-16 6 -31 8 -34 5 -4 -3 4 -8 16 -12 12 -3 19
-9 16 -15 -4 -5 -10 -5 -17 0 -7 6 -30 7 -52 3 -22 -4 -57 -3 -78 1 -44 10
-142 61 -226 117 -31 21 -100 68 -155 104 -54 37 -129 82 -165 99 -36 18 -68
35 -71 39 -3 3 -15 9 -27 13 -13 4 -23 12 -23 17 0 5 -7 9 -15 9 -8 0 -25 5
-39 11 -22 11 -23 13 -9 27 14 14 13 16 -6 23 -13 5 -19 14 -15 24 3 8 1 15
-5 15 -6 0 -11 6 -11 14 0 9 -12 16 -27 18 -16 2 -26 7 -25 11 2 5 -9 23 -25
39 -24 26 -25 29 -5 19 29 -15 28 0 -3 33 -25 27 -33 42 -17 32 5 -3 9 1 9 9
0 13 -17 20 -39 16 -5 0 -8 4 -8 10 0 6 8 9 18 5 11 -4 9 0 -5 10 -13 9 -23
20 -23 25 0 5 -31 40 -70 78 -38 39 -70 75 -70 81 0 5 -4 10 -10 10 -11 0 -79
71 -80 83 0 4 -11 18 -25 31 -14 13 -25 26 -25 30 0 4 -10 20 -21 35 -13 17
-18 34 -14 42 6 9 3 11 -8 6 -11 -4 -17 -1 -17 7 0 7 -7 19 -15 26 -8 7 -15
23 -15 36 0 13 -9 46 -20 73 -25 65 -8 58 50 -22z m967 42 c0 -21 -3 -26 -9
-16 -4 9 -5 22 -2 31 9 23 11 20 11 -15z m2258 -24 c26 -21 -2 -7 -37 19 -16
11 -28 23 -28 28 0 4 10 -1 23 -12 12 -10 31 -26 42 -35z m-62 -2 c69 -50 58
-61 -13 -13 -33 22 -60 45 -60 51 0 12 9 7 73 -38z m-1693 28 c0 -12 -20 -25
-27 -18 -7 7 6 27 18 27 5 0 9 -4 9 -9z m120 -20 c0 -3 -13 -15 -28 -25 l-27
-19 22 24 c19 20 20 28 10 39 -10 12 -9 12 6 1 9 -7 17 -16 17 -20z m2117 7
c-3 -8 -6 -5 -6 6 -1 11 2 17 5 13 3 -3 4 -12 1 -19z m-657 -41 c0 -6 -11 0
-25 13 -14 13 -25 28 -25 33 0 6 11 0 25 -13 14 -13 25 -28 25 -33z m-1612 21
c14 -14 16 -42 2 -33 -14 9 -32 45 -22 45 4 0 13 -5 20 -12z m2312 -8 c0 -5
-5 -10 -11 -10 -5 0 -7 5 -4 10 3 6 8 10 11 10 2 0 4 -4 4 -10z m-760 -10 c0
-5 -2 -10 -4 -10 -3 0 -8 5 -11 10 -3 6 -1 10 4 10 6 0 11 -4 11 -10z m713
-17 c-5 -12 -7 -12 -14 -1 -13 20 -11 28 5 22 8 -3 12 -12 9 -21z m-2632 -10
c-12 -20 -14 -14 -5 12 4 9 9 14 11 11 3 -2 0 -13 -6 -23z m445 -9 c-4 -9 -9
-14 -13 -11 -3 4 -12 2 -20 -5 -20 -16 -24 -6 -7 17 13 17 16 18 24 5 8 -12
10 -12 10 4 0 11 3 17 6 13 4 -3 4 -14 0 -23z m180 1 c1 -8 -1 -13 -6 -10 -11
7 -41 -30 -38 -46 2 -7 -1 -13 -7 -14 -5 0 -16 -4 -23 -9 -27 -16 -26 6 1 29
15 13 27 27 27 31 0 12 33 45 39 39 3 -3 6 -12 7 -20z m1259 15 c3 -5 1 -10
-4 -10 -6 0 -11 5 -11 10 0 6 2 10 4 10 3 0 8 -4 11 -10z m85 -23 c0 -5 -4 -5
-10 -2 -5 3 -10 14 -10 23 0 15 2 15 10 2 5 -8 10 -19 10 -23z m-1235 -11
c-10 -14 -21 -26 -26 -26 -5 0 0 13 12 30 27 36 38 33 14 -4z m1004 8 c16 -37
9 -39 -11 -3 -9 16 -14 29 -9 29 4 0 13 -12 20 -26z m121 -19 c24 -24 41 -48
37 -51 -4 -4 -8 -5 -9 -3 -2 2 -23 26 -48 52 -56 60 -39 62 20 2z m339 41 c-2
-2 -14 -9 -26 -15 -19 -10 -22 -9 -17 4 4 8 15 15 27 15 11 0 18 -2 16 -4z
m321 -16 c0 -11 -4 -20 -9 -20 -5 0 -7 9 -4 20 3 11 7 20 9 20 2 0 4 -9 4 -20z
m-479 -22 l23 -33 -27 24 c-15 14 -27 28 -27 33 0 15 8 8 31 -24z m-141 2 c0
-5 -5 -10 -11 -10 -5 0 -7 5 -4 10 3 6 8 10 11 10 2 0 4 -4 4 -10z m-998 -22
c-7 -7 -12 -8 -12 -2 0 14 12 26 19 19 2 -3 -1 -11 -7 -17z m748 7 c0 -8 -2
-15 -4 -15 -2 0 -6 7 -10 15 -3 8 -1 15 4 15 6 0 10 -7 10 -15z m284 -1 c3 -8
2 -12 -4 -9 -6 3 -10 10 -10 16 0 14 7 11 14 -7z m621 6 c3 -5 1 -10 -4 -10
-6 0 -11 5 -11 10 0 6 2 10 4 10 3 0 8 -4 11 -10z m-2419 -16 c-4 -9 -1 -24 6
-33 11 -15 10 -15 -5 0 -16 13 -15 49 0 49 3 0 2 -7 -1 -16z m529 -3 c-3 -6
-11 -11 -17 -11 -6 0 -6 6 2 15 14 17 26 13 15 -4z m199 4 c6 -16 -22 -91 -30
-82 -3 3 2 19 11 37 9 18 14 34 12 36 -3 3 -13 -15 -23 -40 -18 -42 -34 -60
-34 -36 0 15 43 100 51 100 4 0 9 -7 13 -15z m615 -23 c0 -24 -1 -25 -9 -7
-12 28 -12 47 0 40 6 -3 10 -18 9 -33z m156 -8 c15 -25 24 -48 22 -51 -3 -3
-17 18 -31 46 -33 63 -27 67 9 5z m-418 -11 c-3 -10 -5 -2 -5 17 0 19 2 27 5
18 2 -10 2 -26 0 -35z m1289 36 c3 -6 1 -16 -6 -22 -10 -9 -12 -8 -7 5 3 9 1
19 -6 22 -9 3 -9 5 0 5 6 1 15 -4 19 -10z m214 7 c0 -2 -8 -10 -17 -17 -16
-13 -17 -12 -4 4 13 16 21 21 21 13z m-1010 -57 c0 -18 -10 -8 -25 24 l-16 32
21 -24 c11 -13 20 -27 20 -32z m-621 -3 c-9 -8 -10 -7 -5 7 3 10 7 24 7 30 1
7 3 4 6 -7 3 -10 -1 -23 -8 -30z m586 14 c9 -16 13 -30 11 -30 -3 0 -12 14
-21 30 -9 17 -13 30 -11 30 3 0 12 -13 21 -30z m-1007 -9 c-13 -17 -27 -30
-32 -30 -6 -1 3 13 19 29 37 38 43 39 13 1z m699 17 c-2 -7 0 -23 4 -35 5 -14
5 -23 -1 -23 -12 0 -24 45 -15 59 9 15 18 14 12 -1z m1308 2 c-3 -5 -16 -15
-28 -21 -19 -9 -19 -8 3 10 28 23 34 26 25 11z m-715 -4 c0 -2 -11 -6 -25 -8
-14 -3 -25 -1 -25 3 0 5 11 9 25 9 14 0 25 -2 25 -4z m-623 -28 c-3 -8 -6 -5
-6 6 -1 11 2 17 5 13 3 -3 4 -12 1 -19z m-1237 8 c0 -3 -4 -8 -10 -11 -5 -3
-10 -1 -10 4 0 6 5 11 10 11 6 0 10 -2 10 -4z m1076 -23 c-10 -10 -19 5 -10
18 6 11 8 11 12 0 2 -7 1 -15 -2 -18z m-243 -23 c-9 -16 -21 -30 -25 -30 -4 0
1 13 10 30 9 16 21 30 25 30 5 0 0 -13 -10 -30z m157 5 c0 -14 -4 -25 -10 -25
-11 0 -14 33 -3 43 11 11 13 8 13 -18z m660 15 c0 -5 -2 -10 -4 -10 -3 0 -8 5
-11 10 -3 6 -1 10 4 10 6 0 11 -4 11 -10z m-538 -35 c-2 -14 -6 -25 -8 -25 -2
0 -4 11 -4 25 0 14 4 25 9 25 4 0 6 -11 3 -25z m151 -6 c5 -4 4 -10 -1 -13 -6
-3 -23 5 -39 19 l-28 25 30 -12 c17 -6 34 -15 38 -19z m132 11 c-10 -11 -22
-20 -27 -20 -10 0 24 38 36 39 5 1 1 -8 -9 -19z m1055 5 c0 -2 -10 -9 -22 -15
-22 -11 -22 -10 -4 4 21 17 26 19 26 11z m-115 -65 c-3 -5 -12 -10 -18 -10 -7
0 -6 4 3 10 19 12 23 12 15 0z m-635 -82 c0 -25 -35 -58 -61 -58 -20 0 -19 2
7 23 16 12 32 21 36 20 12 -4 10 35 -2 42 -5 3 -10 12 -10 18 1 19 30 -25 30
-45z m395 -18 c-3 -5 -14 -10 -23 -9 -14 0 -13 2 3 9 27 11 27 11 20 0z m-55
-20 c-8 -5 -22 -9 -30 -9 -10 0 -8 3 5 9 27 12 43 12 25 0z m-1785 -30 c3 -6
-1 -7 -9 -4 -18 7 -21 14 -7 14 6 0 13 -4 16 -10z m630 -390 c8 -13 -5 -13
-25 0 -13 8 -13 10 2 10 9 0 20 -4 23 -10z m-102 -107 c-7 -2 -21 -2 -30 0
-10 3 -4 5 12 5 17 0 24 -2 18 -5z m84 1 c-3 -3 -12 -4 -19 -1 -8 3 -5 6 6 6
11 1 17 -2 13 -5z m-597 -89 c0 -9 -6 -12 -16 -8 -13 5 -13 7 -2 14 17 11 18
11 18 -6z m1680 -15 c0 -5 -2 -10 -4 -10 -3 0 -8 5 -11 10 -3 6 -1 10 4 10 6
0 11 -4 11 -10z m1206 -47 c-8 -15 -15 -25 -16 -21 0 12 23 58 27 54 3 -2 -2
-17 -11 -33z m4 -43 c0 -5 -5 -10 -11 -10 -5 0 -7 5 -4 10 3 6 8 10 11 10 2 0
4 -4 4 -10z m-39 -37 c-12 -20 -14 -14 -5 12 4 9 9 14 11 11 3 -2 0 -13 -6
-23z m-1158 -17 c4 -10 1 -13 -8 -9 -8 3 -12 9 -9 14 7 12 11 11 17 -5z m931
-14 c-12 -9 -26 -26 -32 -37 -6 -11 -12 -14 -12 -7 0 14 44 62 57 62 4 0 -2
-8 -13 -18z m213 -14 c-3 -8 -6 -5 -6 6 -1 11 2 17 5 13 3 -3 4 -12 1 -19z
m-1182 -8 c3 -6 -1 -7 -9 -4 -18 7 -21 14 -7 14 6 0 13 -4 16 -10z m1005 -32
c0 -17 -1 -17 -18 0 -13 12 -16 21 -9 30 8 11 12 11 18 0 5 -7 9 -21 9 -30z
m-930 -30 c0 -7 -5 -6 -13 1 -8 6 -23 9 -35 6 -19 -3 -20 -1 -10 15 11 16 14
17 35 3 13 -8 23 -20 23 -25z m1074 -107 c-51 -93 -83 -133 -101 -127 -21 8
-70 -47 -85 -96 -9 -30 -28 -54 -76 -94 -35 -30 -67 -52 -70 -49 -4 3 -2 9 4
13 6 4 16 17 23 30 6 12 20 22 30 22 27 0 69 47 83 94 12 42 34 78 79 133 15
17 32 47 39 67 10 31 14 34 30 26 26 -14 48 19 57 85 l7 50 8 -44 c7 -40 4
-52 -28 -110z m-1145 99 c7 0 9 -5 6 -11 -8 -12 -45 17 -45 35 0 6 7 3 14 -6
7 -10 19 -18 25 -18z m1228 -12 c-3 -8 -6 -5 -6 6 -1 11 2 17 5 13 3 -3 4 -12
1 -19z m-36 -77 c-12 -12 -21 -28 -21 -36 0 -8 -4 -15 -10 -15 -5 0 -7 -8 -4
-17 4 -13 3 -15 -4 -5 -11 16 38 116 51 103 5 -5 0 -18 -12 -30z m-53 -98 c0
-21 -2 -23 -10 -9 -5 9 -6 21 -3 26 10 16 13 12 13 -17z m-188 -214 c0 -23
-35 -68 -54 -71 -11 -2 -30 -19 -41 -38 -25 -44 -45 -49 -45 -13 0 36 66 94
82 72 8 -12 9 -11 5 1 -2 8 5 25 16 38 22 24 37 28 37 11z m-282 -260 c-29
-23 -33 -18 -18 25 14 43 34 52 38 18 3 -18 -4 -31 -20 -43z m-144 -55 c11
-28 -28 -49 -83 -44 -13 1 -35 -9 -50 -22 -14 -14 -55 -32 -91 -42 -35 -10
-68 -23 -72 -29 -4 -7 -8 -7 -8 -2 0 22 19 34 105 68 50 19 110 47 135 61 53
30 56 31 64 10z m-2244 -142 c-7 -3 -19 3 -28 13 -16 15 -15 16 12 4 15 -7 23
-15 16 -17z m64 -11 c11 -4 15 -10 9 -14 -5 -3 -19 0 -29 8 -20 15 -11 18 20
6z"/>
<path d="M4869 2995 c-11 -23 -13 -39 -6 -51 7 -12 6 -15 -3 -9 -9 5 -10 2 -5
-15 5 -15 4 -20 -4 -16 -6 4 -11 4 -12 -1 0 -4 -2 -18 -5 -31 -2 -13 0 -21 5
-17 5 3 12 1 16 -5 3 -6 -1 -13 -11 -17 -15 -6 -15 -7 2 -20 16 -12 17 -15 4
-23 -13 -8 -13 -10 2 -10 12 0 16 8 16 32 -1 18 4 34 10 36 7 2 10 8 6 13 -3
5 2 9 10 9 19 0 20 -12 4 -29 -11 -10 -10 -11 3 -6 10 4 19 18 22 31 3 18 1
24 -8 20 -19 -7 -25 3 -15 29 6 16 5 25 -3 29 -7 3 -3 4 8 3 16 -2 21 5 23 37
2 26 0 36 -8 31 -6 -4 -16 -2 -23 3 -9 7 -17 0 -28 -23z"/>
<path d="M4920 2909 c0 -5 5 -7 10 -4 6 3 10 8 10 11 0 2 -4 4 -10 4 -5 0 -10
-5 -10 -11z"/>
<path d="M4861 2755 c0 -5 6 -21 14 -35 8 -14 14 -20 14 -15 0 6 -6 21 -14 35
-8 14 -14 21 -14 15z"/>
<path d="M3362 1903 c-21 -8 -4 -21 24 -15 19 3 22 7 12 13 -14 10 -17 10 -36
2z"/>
</g>
</svg>
